<?xml version="1.0" standalone="no"?>
<!DOCTYPE svg PUBLIC "-//W3C//DTD SVG 20010904//EN"
 "http://www.w3.org/TR/2001/REC-SVG-20010904/DTD/svg10.dtd">
<svg version="1.0" xmlns="http://www.w3.org/2000/svg"
 width="385.000000pt" height="385.000000pt" viewBox="0 0 385.000000 385.000000"
 preserveAspectRatio="xMidYMid meet">

<g transform="translate(0.000000,385.000000) scale(0.100000,-0.100000)"
fill="#000000" stroke="none">
<path d="M1824 3349 c-49 -28 -134 -75 -189 -104 -157 -85 -155 -72 -32 -141
l106 -59 -6 -76 c-13 -170 79 -289 225 -289 51 0 67 5 108 33 68 45 108 125
109 216 0 36 -3 77 -7 92 -7 24 -2 28 102 79 60 30 106 57 102 61 -6 7 -323
183 -398 222 -30 16 -32 15 -120 -34z"/>
<path d="M970 3214 c-1 -126 49 -310 120 -441 69 -128 157 -229 337 -385 56
-48 127 -116 158 -151 161 -177 298 -464 355 -745 23 -116 36 -296 26 -364 -6
-42 -11 -48 -44 -61 -29 -12 -43 -12 -64 -3 l-28 11 -4 180 c-3 132 -10 204
-24 270 -30 130 -90 295 -127 348 -14 20 -16 18 -43 -44 -62 -139 -86 -285
-81 -499 2 -82 3 -150 2 -150 -1 0 -56 13 -122 29 -231 57 -314 66 -586 66
-198 0 -271 -4 -350 -19 -101 -18 -281 -62 -297 -72 -11 -7 87 -193 160 -303
283 -427 724 -712 1242 -802 167 -30 414 -36 560 -15 453 66 821 251 1121 563
135 140 273 337 355 506 25 49 26 59 14 67 -28 17 -154 52 -295 82 -184 39
-483 50 -666 24 -149 -21 -334 -66 -455 -112 -53 -19 -98 -34 -100 -31 -3 2 2
33 11 68 28 123 39 306 26 463 -15 190 -14 278 4 354 32 136 105 239 243 346
104 79 205 179 265 263 94 129 170 347 182 519 l6 89 -24 -55 c-115 -264 -294
-450 -549 -570 -145 -67 -223 -85 -378 -84 -117 0 -147 4 -223 27 -308 94
-593 343 -698 610 l-28 72 -1 -51z m1725 -2024 c-11 -5 -56 -23 -100 -40 -99
-39 -244 -115 -352 -187 l-82 -54 -53 27 -53 27 95 45 c245 115 460 190 545
191 l20 0 -20 -9z m230 -93 c-154 -75 -389 -214 -463 -275 l-52 -42 -38 23
c-20 13 -46 27 -57 31 -17 6 -12 12 35 42 157 98 386 200 570 255 146 43 147
35 5 -34z m310 -60 c-219 -116 -418 -249 -523 -350 l-52 -51 -33 17 c-17 10
-43 27 -56 38 -31 25 -24 33 107 119 120 80 259 153 387 203 93 37 248 86 275
86 8 0 -39 -28 -105 -62z m-2370 -74 c285 -113 567 -272 780 -442 l70 -56
-130 -3 c-112 -2 -132 0 -151 15 -12 10 -73 61 -136 114 -183 157 -421 315
-628 419 -44 22 -80 42 -80 44 0 8 141 -38 275 -91z m367 16 c178 -60 378
-146 533 -231 114 -62 333 -205 395 -258 l35 -29 -126 -1 -127 0 -115 93
c-200 163 -438 315 -662 423 -60 29 -105 53 -98 54 7 0 81 -23 165 -51z m457
-6 c314 -94 662 -265 913 -448 l83 -60 -129 -3 -129 -3 -51 41 c-249 198 -490
347 -775 478 -108 49 -85 48 88 -5z m1821 32 c0 -2 -55 -41 -122 -87 -164
-111 -302 -222 -422 -341 l-99 -98 -26 24 c-14 13 -36 31 -49 39 l-23 15 64
60 c139 129 332 250 545 339 138 58 132 56 132 49z m-3004 -61 c196 -90 429
-235 601 -372 146 -117 145 -112 23 -112 l-101 0 -128 123 c-145 140 -220 202
-381 317 -63 45 -117 84 -119 86 -11 10 14 0 105 -42z"/>
</g>
</svg>
